<?xml version="1.0" encoding="UTF-8" standalone="no"?>
<svg
   xmlns:dc="http://purl.org/dc/elements/1.1/"
   xmlns:cc="http://creativecommons.org/ns#"
   xmlns:rdf="http://www.w3.org/1999/02/22-rdf-syntax-ns#"
   xmlns:svg="http://www.w3.org/2000/svg"
   xmlns="http://www.w3.org/2000/svg"
   viewBox="0 0 8020 9181.333"
   height="9181.333"
   width="8020"
   xml:space="preserve"
   id="svg2"
   version="1.1"><metadata
     id="metadata8"><rdf:RDF><cc:Work
         rdf:about=""><dc:format>image/svg+xml</dc:format><dc:type
           rdf:resource="http://purl.org/dc/dcmitype/StillImage" /></cc:Work></rdf:RDF></metadata><defs
     id="defs6"><clipPath
       id="clipPath22"
       clipPathUnits="userSpaceOnUse"><path
         id="path20"
         d="M 0,0 H 502 V 575 H 0 Z" /></clipPath></defs><g
     transform="matrix(1.3333333,0,0,-1.3333333,0,9181.3333)"
     id="g10"><g
       id="g12"><g
         id="g14"><g
           transform="matrix(11.92,0,0,11.92,0,29.42)"
           id="g16"><g
             clip-path="url(#clipPath22)"
             id="g18"><g
               id="g24"><path
                 id="path26"
                 style="fill:#ffffff;fill-opacity:1;fill-rule:nonzero;stroke:none"
                 d="M 0,0.49 H 501.75 V 575 H 0 Z" /><path
                 id="path28"
                 style="fill:none;stroke:#241f21;stroke-width:0.13;stroke-linecap:square;stroke-linejoin:bevel;stroke-miterlimit:10;stroke-dasharray:none;stroke-opacity:1"
                 d="m 188.72,473.31 -0.12,0.44 -0.19,0.44 -0.19,0.37 -0.19,0.38 -0.25,0.38 -0.25,0.37 -0.25,0.32 -0.32,0.31 -0.31,0.31 -0.31,0.32 -0.38,0.25 -0.31,0.25 -0.38,0.19 -0.38,0.19 -0.37,0.18 -0.44,0.13 -0.38,0.13 -0.44,0.12 -0.43,0.06 h -0.44 l -0.44,0.07 h -0.44 l -0.44,-0.07 -0.5,-0.06 -3.58,-0.63 -4.26,-0.81 -4.89,-0.88 -5.4,-0.94 -5.89,-1 -6.34,-1.07 -6.65,-1.13 -6.9,-1.13 -7.02,-1.13 -7.21,-1.13 -7.22,-1.13 -7.21,-1.06 -7.09,-1.01 -6.89,-0.94 -6.65,-0.81 -6.34,-0.76 -5.96,-0.56 -5.45,-0.5 -4.96,-0.32 -4.26,-0.12 -3.64,0.06 -2.88,0.25 -2.07,0.44 -1.13,0.69 -0.07,0.13 -0.06,0.12 -0.06,0.13 -0.06,0.19 -0.07,0.18 v 0.19 l -0.06,0.19 -0.06,0.25 v 0.25 l -0.07,0.25 v 0.32 0.25 0.31 0.25 0.32 l 0.07,0.31 v 0.31 l 0.06,0.32 v 0.31 l 0.06,0.31 0.07,0.32 0.06,0.31 0.12,0.31 0.07,0.32 0.06,0.19 0.06,0.12 v 0.13 l 0.06,0.19 0.07,0.12 0.06,0.13 v 0.12 l 0.06,0.13 0.07,0.12 v 0.13 l 0.06,0.12 v 0.07 l 0.06,0.12 v 0.06 l 0.06,0.07 v 0.12 l 0.07,0.07 v 0.06 0 l 0.06,0.06 v 0.06 0 l 0.19,0.95 0.81,0.87 1.32,0.82 1.82,0.88 2.38,0.81 2.82,0.82 3.33,0.81 3.82,0.82 4.21,0.81 4.7,0.82 5.08,0.88 5.52,0.88 5.83,0.88 6.27,0.87 6.59,0.88 6.96,1.01 7.28,0.94 7.52,1 7.84,1.07 8.16,1.13 8.4,1.12 8.59,1.2 8.91,1.25 9.03,1.26 0.19,0.06 h 0.12 l 0.19,0.06 h 0.13 l 0.19,0.06 h 0.12 l 0.19,0.07 0.13,0.06 0.12,0.06 0.19,0.07 h 0.12 l 0.19,0.06 0.13,0.06 0.12,0.13 0.13,0.06 0.19,0.06 0.12,0.06 0.13,0.07 0.12,0.12 0.13,0.07 0.12,0.06 0.19,0.12 0.13,0.07 0.12,0.12 0.19,0.19 0.19,0.19 0.25,0.19 0.19,0.18 0.25,0.26 0.19,0.25 0.25,0.25 0.25,0.25 0.19,0.31 0.25,0.25 0.19,0.32 0.18,0.31 0.19,0.31 0.25,0.38 0.19,0.38 0.13,0.37 0.19,0.38 0.18,0.44 0.13,0.38 0.12,0.43 0.13,0.44 0.13,0.51 0.06,0.5 0.06,0.5 v 0 l -0.06,0.12 -0.06,0.26 -0.07,0.31 -0.12,0.31 -0.07,0.44 -0.06,0.44 -0.06,0.57 -0.06,0.5 -0.07,0.62 v 0.57 l 0.07,0.63 0.06,0.62 0.19,0.63 0.19,0.63 0.25,0.63 0.37,0.62 0.38,0.57 0.5,0.5 0.63,0.5 0.69,0.44 0.81,0.38 0.88,0.31 1.07,0.25 h 0.06 l 0.13,0.06 0.31,0.13 0.38,0.13 0.43,0.12 0.51,0.13 0.62,0.18 0.63,0.07 0.69,0.12 h 0.69 0.75 l 0.82,-0.06 0.75,-0.19 0.75,-0.19 0.82,-0.31 0.75,-0.44 0.69,-0.56 0.69,-0.69 0.63,-0.82 0.56,-0.94 0.5,-1.13 0.44,-1.25 0.32,-1.45 0.25,-1.69 0.06,-0.44 0.13,-0.44 0.12,-0.44 0.13,-0.37 0.19,-0.44 0.18,-0.38 0.19,-0.38 0.25,-0.37 0.25,-0.32 0.32,-0.37 0.25,-0.32 0.31,-0.25 0.38,-0.31 0.31,-0.25 0.38,-0.25 0.37,-0.19 0.38,-0.19 0.38,-0.19 0.44,-0.12 0.43,-0.13 0.44,-0.06 0.44,-0.06 h 0.44 0.44 0.06 v 0 h 0.07 v 0 h 0.06 v 0 h 0.06 v 0 h 0.06 v 0 h 0.07 v 0 h 0.06 v 0 h 0.06 v 0 l 1.57,0.12 3.07,0.31 4.39,0.44 5.65,0.57 6.77,0.69 7.84,0.81 8.72,0.88 9.47,0.94 10.22,1.01 10.67,1.06 11.16,1.07 11.48,1.13 11.73,1.13 11.72,1.06 11.8,1.07 11.6,1.07 11.29,0.94 10.97,0.94 10.48,0.82 9.84,0.69 9.16,0.62 8.34,0.5 7.34,0.32 6.27,0.19 0.07,-0.07 0.12,-0.06 0.13,-0.06 0.18,-0.13 0.26,-0.12 0.25,-0.19 0.25,-0.13 0.25,-0.25 0.25,-0.19 0.31,-0.25 0.25,-0.25 0.25,-0.31 0.32,-0.31 0.19,-0.32 0.25,-0.31 0.19,-0.38 0.18,-0.37 0.13,-0.38 0.06,-0.44 0.06,-0.38 v -0.44 l -0.06,-0.43 -0.12,-0.51 -0.19,-0.44 -0.13,-0.44 -0.12,-0.37 -0.07,-0.44 -0.12,-0.31 -0.13,-0.38 -0.12,-0.31 -0.13,-0.26 -0.12,-0.25 -0.19,-0.25 -0.19,-0.25 -0.25,-0.19 -0.25,-0.18 -0.31,-0.19 -0.38,-0.13 -0.38,-0.12 -0.5,-0.13 -0.5,-0.12 -0.63,-0.07 -0.62,-0.06 -0.76,-0.06 h -0.81 l -0.88,-0.07 h -1 l -1.76,-0.06 -3.14,-0.25 -4.39,-0.38 -5.64,-0.5 -6.71,-0.69 -7.72,-0.75 -8.46,-0.88 -9.29,-0.94 -9.84,-1 -10.41,-1.07 -10.73,-1.19 -11.04,-1.13 -11.16,-1.26 -11.23,-1.25 -11.16,-1.19 -10.98,-1.26 -10.66,-1.25 -10.22,-1.19 -9.72,-1.13 -9.1,-1.13 -8.28,-1.01 -7.4,-1 -6.46,-0.88 -5.33,-0.75 -0.44,-0.06 -0.5,-0.13 -0.44,-0.19 -0.44,-0.18 -0.44,-0.19 -0.37,-0.19 -0.38,-0.25 -0.38,-0.32 -0.37,-0.25 -0.32,-0.37 -0.31,-0.32 -0.25,-0.37 -0.25,-0.32 -0.25,-0.44 -0.19,-0.37 -0.19,-0.44 -0.19,-0.38 -0.12,-0.44 -0.13,-0.5 -0.06,-0.44 -0.06,-0.44 v -0.5 -0.5 l 0.06,-0.44 0.44,-3.01 0.5,-3.51 0.5,-3.89 0.63,-4.33 0.63,-4.64 0.69,-5.02 0.69,-5.27 0.75,-5.59 0.81,-5.77 0.76,-5.96 0.81,-6.08 0.82,-6.28 0.88,-6.27 0.81,-6.4 0.82,-6.33 0.81,-6.34 0.75,-6.34 0.76,-6.21 0.75,-6.02 0.69,-5.96 0.69,-5.71 0.63,-5.45 0.56,-5.21 0.5,-4.89 0.13,-0.82 0.25,-0.82 0.25,-0.69 0.38,-0.69 0.43,-0.62 0.44,-0.57 0.57,-0.5 0.56,-0.44 0.57,-0.38 0.69,-0.31 0.62,-0.25 0.69,-0.19 0.69,-0.12 0.76,-0.07 h 0.69 l 0.75,0.13 0.69,0.12 0.69,0.26 0.63,0.31 0.69,0.38 0.56,0.43 0.57,0.57 0.56,0.63 0.44,0.69 2.51,4.14 2.76,4.39 2.88,4.64 3.14,4.89 3.26,5.02 3.45,5.15 3.57,5.27 3.77,5.39 3.89,5.4 4.01,5.39 4.14,5.46 4.2,5.33 4.33,5.27 4.39,5.21 4.45,5.02 4.52,4.89 4.58,4.7 4.64,4.46 4.7,4.14 4.64,3.89 4.71,3.57 4.7,3.27 4.7,2.82 4.65,2.38 0.12,0.13 0.44,0.25 0.75,0.5 1.01,0.63 1.25,0.75 1.51,0.88 1.75,1 2.07,1.01 2.26,1.13 2.51,1.13 2.76,1.19 2.95,1.13 3.19,1.13 3.39,1.13 3.58,1 3.76,0.94 3.95,0.88 4.2,0.75 4.33,0.57 4.45,0.43 4.71,0.26 4.83,0.06 4.95,-0.19 5.08,-0.38 4.77,-0.94 4.08,-1.69 3.38,-2.45 2.7,-3.13 2.13,-3.77 1.51,-4.33 0.87,-4.83 0.38,-5.39 -0.19,-5.77 -0.62,-6.15 -1.2,-6.53 -1.56,-6.77 -2.07,-7.03 -2.45,-7.21 -2.88,-7.4 -3.2,-7.41 -3.52,-7.46 -3.88,-7.47 -4.14,-7.4 -4.39,-7.21 -4.65,-7.16 -4.82,-6.9 -5.08,-6.58 -5.21,-6.34 -0.25,-0.25 -0.19,-0.19 -0.25,-0.25 -0.25,-0.19 -0.25,-0.19 -0.25,-0.18 -0.25,-0.13 -0.25,-0.12 -0.32,-0.19 -0.25,-0.07 -0.31,-0.12 -0.25,-0.13 -0.32,-0.06 -0.31,-0.06 -0.25,-0.06 h -0.32 l -0.31,-0.07 h -0.31 -0.32 -0.31 l -0.31,0.07 -0.32,0.06 -0.31,0.06 -0.31,0.06 v 0 h -0.07 v 0 0 l -0.06,0.07 v 0 l -0.56,0.18 -0.57,0.19 -0.44,0.32 -0.5,0.25 -0.44,0.37 -0.37,0.38 -0.38,0.38 -0.31,0.44 -0.32,0.44 -0.25,0.43 -0.25,0.51 -0.19,0.5 -0.19,0.5 -0.06,0.56 -0.12,0.51 v 0.56 0.57 l 0.06,0.5 0.06,0.56 0.13,0.57 0.18,0.5 0.19,0.56 0.25,0.5 0.32,0.51 1.94,2.88 2.26,3.45 2.51,3.95 2.76,4.33 2.95,4.77 3.07,5.08 3.2,5.33 3.2,5.65 3.26,5.77 3.13,5.9 3.08,6.02 2.94,6.09 2.83,6.02 2.51,6.02 2.25,5.84 1.95,5.77 1.57,5.45 1.19,5.27 0.75,4.96 0.19,4.58 -0.32,4.2 -0.94,3.7 -1.56,3.27 -2.26,2.63 -0.13,0.13 -0.06,0.06 -0.13,0.12 -0.12,0.07 -0.13,0.12 -0.12,0.07 -0.13,0.06 -0.12,0.06 -0.13,0.06 -0.12,0.13 -0.19,0.06 -0.13,0.06 -0.12,0.07 h -0.13 l -0.12,0.06 -0.19,0.06 -0.13,0.07 h -0.12 l -0.19,0.06 -0.13,0.06 h -0.12 l -0.19,0.06 h -0.13 l -0.12,0.07 -1.26,0.18 -1.56,0.13 -1.82,0.13 -2.13,0.06 h -2.45 l -2.7,-0.19 -2.95,-0.31 -3.26,-0.44 -3.45,-0.69 -3.7,-0.88 -3.95,-1.13 -4.2,-1.38 -4.45,-1.69 -4.64,-2.01 -4.83,-2.39 -5.02,-2.76 -5.27,-3.13 -5.46,-3.58 -5.58,-4.01 -5.83,-4.46 -5.96,-5.02 -6.15,-5.52 -6.27,-6.08 -6.39,-6.65 -0.32,-0.38 -0.94,-1.06 -1.44,-1.76 -2.01,-2.38 -2.38,-2.95 -2.82,-3.45 -3.2,-4.02 -3.45,-4.39 -3.7,-4.89 -3.95,-5.21 -4.08,-5.58 -4.14,-5.84 -4.2,-6.08 -4.27,-6.27 -4.14,-6.47 -4.07,-6.58 -3.95,-6.65 -3.71,-6.65 -3.51,-6.72 -3.13,-6.64 -2.89,-6.53 -2.38,-6.4 -2.01,-6.27 -1.5,-6.02 v -0.07 -0.06 -0.06 l -0.07,-0.13 v -0.06 -0.06 -0.07 -0.06 -0.06 -0.06 l -0.06,-0.07 v -0.12 -0.06 -0.07 -0.06 -0.06 -0.07 -0.06 -0.06 -0.13 -0.06 -0.06 -0.06 -0.07 -0.75 l 0.06,-2.01 0.07,-3.26 0.12,-4.39 0.06,-5.33 0.19,-6.21 0.13,-6.9 0.19,-7.6 0.12,-8.03 0.19,-8.34 0.19,-8.66 0.25,-8.78 0.19,-8.72 0.18,-8.66 0.19,-8.4 0.13,-8.03 0.19,-7.53 0.12,-6.9 0.19,-6.21 0.06,-5.33 0.13,-4.39 0.06,-3.27 0.06,-2.07 v -0.69 -0.25 l 0.07,-0.25 v -0.25 l 0.06,-0.25 v -0.25 l 0.06,-0.25 0.06,-0.25 0.07,-0.25 0.12,-0.26 0.07,-0.25 0.12,-0.25 0.06,-0.19 0.13,-0.25 0.12,-0.18 0.13,-0.26 0.13,-0.18 0.18,-0.25 0.13,-0.19 0.19,-0.19 0.12,-0.19 0.19,-0.19 0.19,-0.19 0.19,-0.18 0.19,-0.19 0.62,-0.5 0.69,-0.57 0.82,-0.56 0.81,-0.57 0.94,-0.62 1.01,-0.63 1.13,-0.63 1.19,-0.69 1.25,-0.63 1.32,-0.62 1.44,-0.63 1.51,-0.63 1.57,-0.56 1.69,-0.57 1.82,-0.56 1.82,-0.5 2,-0.44 2.01,-0.44 2.2,-0.38 2.25,-0.38 2.32,-0.25 2.45,-0.18 2.51,-0.13 2.63,-0.13 h 0.5 0.44 0.44 0.44 0.44 l 0.38,-0.06 h 0.44 0.37 l 0.38,-0.06 h 0.38 0.43 l 0.38,-0.06 h 0.38 0.37 l 0.38,-0.07 h 0.44 0.37 l 0.38,-0.06 h 0.44 0.44 0.44 0.44 l 0.44,-0.06 h 0.5 0.06 0.06 l 0.13,0.06 h 0.19 0.12 l 0.25,0.06 h 0.19 0.25 l 0.25,0.07 h 0.25 l 0.25,0.06 h 0.26 l 0.25,0.06 h 0.25 l 0.25,0.06 h 0.25 l 0.19,0.07 h 0.19 0.18 l 0.13,0.06 h 0.12 0.13 0.06 l 0.25,0.06 h 0.19 l 0.13,0.07 h 0.19 l 0.12,0.06 h 0.13 0.12 l 0.13,0.06 h 0.12 0.13 l 0.06,0.06 h 0.13 0.18 l 0.13,0.07 0.13,0.06 h 0.18 l 0.25,0.06 0.19,0.06 0.25,0.07 0.32,0.06 0.31,0.13 0.38,0.06 0.37,0.12 0.44,0.13 0.69,0.19 0.88,0.25 1.13,0.25 1.38,0.38 1.57,0.37 1.75,0.5 2.01,0.57 2.13,0.63 2.32,0.69 2.45,0.75 2.63,0.88 2.83,0.94 2.88,1 3.07,1.13 3.14,1.19 3.26,1.32 3.39,1.38 3.45,1.51 3.51,1.63 3.64,1.69 3.7,1.88 3.7,1.95 3.76,2.07 3.83,2.13 1.25,0.82 1.32,0.75 1.25,0.75 1.26,0.82 1.19,0.81 1.25,0.82 1.26,0.88 1.19,0.81 1.19,0.88 1.19,0.88 1.19,0.88 1.2,0.94 1.19,0.88 1.13,0.94 1.13,0.94 1.19,0.94 1.13,0.94 1.13,1 1.06,0.94 1.13,1.01 1.13,1 1.07,1.01 1.06,1.06 1.07,1.01 3.13,3.07 3.14,3.2 3.14,3.2 3.13,3.32 3.07,3.27 3.08,3.32 3.01,3.33 2.88,3.32 2.89,3.26 2.76,3.2 2.7,3.14 2.57,3.07 2.51,2.95 2.32,2.82 2.19,2.7 2.07,2.57 1.95,2.39 1.75,2.19 1.51,2.01 1.38,1.76 1.19,1.57 1,1.31 0.75,1.01 0.51,0.81 v 0 l 0.06,0.06 v 0.07 l 0.06,0.06 0.06,0.13 0.07,0.06 0.06,0.12 0.06,0.13 0.06,0.12 0.13,0.13 0.06,0.13 0.13,0.12 0.06,0.13 0.13,0.18 0.12,0.13 0.13,0.13 0.12,0.18 0.13,0.13 0.12,0.19 0.13,0.12 0.19,0.19 0.12,0.13 0.13,0.12 0.19,0.19 0.06,0.06 0.12,0.07 0.07,0.06 h 0.12 l 0.07,0.06 0.12,0.06 h 0.06 l 0.13,0.07 h 0.12 0.07 l 0.12,0.06 h 0.07 0.12 0.06 0.13 0.06 0.13 0.06 0.13 0.06 0.06 0.13 0.06 0.06 l 0.06,-0.06 v 0 h 0.07 v -0.07 h 0.06 0.06 l 0.07,-0.06 0.12,-0.06 h 0.06 l 0.07,-0.06 h 0.06 l 0.06,-0.07 0.13,-0.06 h 0.06 l 0.06,-0.06 h 0.07 l 0.06,-0.07 h 0.06 l 0.06,-0.06 v 0 h 0.07 v 0 l 0.06,-0.06 v 0 0 l 0.06,-0.06 h 0.06 l 0.07,-0.07 0.06,-0.06 0.06,-0.06 h 0.07 l 0.06,-0.06 0.06,-0.07 0.06,-0.06 0.07,-0.06 h 0.06 l 0.06,-0.07 v -0.06 l 0.06,-0.06 h 0.07 l 0.06,-0.06 v 0 h 0.06 v -0.07 -0.25 -0.19 -0.25 -0.18 -0.13 -0.13 -0.12 -0.13 -0.06 -0.06 -0.06 -0.07 -0.06 -0.06 0 -0.07 0 -0.06 h 0.06 v -0.06 0 -0.06 -0.07 -0.06 -0.12 -0.13 -0.13 -0.12 -0.06 -0.13 -0.06 -0.13 -0.06 -0.06 l -0.06,-0.07 v -0.06 -0.12 -0.07 l -0.06,-0.06 V 238 l -0.06,-0.06 v -0.13 l -0.07,-0.06 v -0.07 l -0.06,-0.12 -0.06,-0.06 -0.06,-0.13 v -0.12 l -0.07,-0.07 v 0 -0.06 -0.06 -0.07 l -0.06,-0.06 v -0.06 -0.06 l -0.06,-0.07 v -0.12 l -0.06,-0.06 v -0.13 l -0.07,-0.06 v -0.13 l -0.06,-0.12 -0.06,-0.13 v -0.06 l -0.07,-0.13 -0.06,-0.12 -0.06,-0.13 -0.06,-0.12 -0.07,-0.13 -1.13,-2.07 -1.63,-2.82 -2.13,-3.52 -2.57,-4.07 -3.07,-4.65 -3.45,-5.14 -4.02,-5.52 -4.39,-5.9 -4.89,-6.14 -5.39,-6.34 -5.77,-6.46 -6.28,-6.53 -6.64,-6.52 -7.15,-6.4 -7.59,-6.34 -8.03,-6.08 -8.47,-5.83 -8.84,-5.46 -9.35,-5.02 -9.78,-4.58 -10.16,-3.95 -10.6,-3.39 -11.04,-2.7 -11.41,-1.94 h -0.07 -0.12 -0.06 -0.07 l -0.06,-0.07 h -0.06 -0.13 -0.06 -0.06 l -0.07,-0.06 h -0.06 -0.12 -0.07 -0.06 l -0.06,-0.06 h -0.06 -0.07 -0.12 -0.07 l -0.06,-0.06 h -0.06 -0.06 -0.13 -0.06 l -0.88,-0.13 -1,-0.12 -1.07,-0.19 -1.25,-0.13 -1.32,-0.19 -1.44,-0.12 -1.51,-0.13 -1.63,-0.12 -1.76,-0.07 h -1.81 -1.89 -1.94 l -2.07,0.13 -2.13,0.19 -2.2,0.25 -2.32,0.31 -2.32,0.38 -2.38,0.5 -2.45,0.63 -2.51,0.69 -2.57,0.75 -2.63,0.94 -2.64,1.07 -2.69,1.19 -0.63,0.19 -0.57,0.19 -0.56,0.12 -0.63,0.13 h -0.56 -0.63 l -0.56,-0.13 -0.57,-0.06 -0.56,-0.19 -0.5,-0.19 -0.51,-0.25 -0.5,-0.31 -0.5,-0.32 -0.44,-0.37 -0.37,-0.38 -0.38,-0.44 -0.38,-0.44 -0.31,-0.5 -0.25,-0.56 -0.25,-0.5 -0.19,-0.57 -0.13,-0.63 -0.06,-0.62 -0.06,-0.63 -0.06,-2.32 -0.07,-2.51 -0.06,-2.57 -0.13,-2.7 -0.18,-2.76 -0.19,-2.89 -0.25,-2.88 -0.32,-2.89 -0.31,-2.95 -0.44,-2.95 -0.44,-2.88 -0.5,-2.89 -0.63,-2.82 -0.62,-2.76 -0.76,-2.63 -0.81,-2.58 -0.88,-2.38 -1,-2.26 -1.01,-2.13 -1.19,-1.95 -1.25,-1.75 -1.32,-1.51 -1.44,-1.32 -1.57,-1.06 -0.19,-0.07 -0.19,-0.06 -0.25,-0.06 -0.19,-0.06 -0.18,-0.07 -0.25,-0.06 -0.19,-0.06 -0.19,-0.06 h -0.25 l -0.19,-0.07 -0.25,-0.06 h -0.19 l -0.25,-0.06 h -0.25 l -0.19,-0.07 h -0.25 -0.25 -0.25 -0.25 -0.25 -0.25 l -0.26,0.07 h -0.25 l -0.25,0.06 h -0.18 l -0.13,-0.06 h -0.19 -0.19 -0.18 -0.19 -0.19 -0.25 -0.19 -0.25 l -0.25,0.06 H 215 214.75 l -0.25,0.06 -0.25,0.07 H 214 l -0.32,0.06 -0.25,0.06 -0.25,0.06 h -0.25 l -0.31,0.07 -0.25,0.12 -0.26,0.06 -0.31,0.07 -2.07,0.81 -1.88,1.26 -1.69,1.57 -1.63,1.94 -1.45,2.26 -1.25,2.57 -1.19,2.76 -1.01,2.95 -0.94,3.2 -0.81,3.32 -0.75,3.45 -0.57,3.52 -0.56,3.64 -0.44,3.63 -0.38,3.64 -0.31,3.64 -0.25,3.51 -0.25,3.45 -0.13,3.39 -0.13,3.14 -0.12,3.01 -0.06,2.82 -0.13,2.58 -0.06,2.25 -0.25,10.42 -0.32,11.29 -0.31,12.04 -0.38,12.74 -0.31,13.3 -0.31,13.74 -0.38,14.11 -0.38,14.37 -0.31,14.43 -0.31,14.55 -0.38,14.43 -0.31,14.24 -0.32,13.99 -0.31,13.61 -0.31,13.11 -0.25,12.49 -0.26,11.79 -0.25,10.98 -0.25,10.04 -0.19,9.03 -0.18,7.9 -0.13,6.65 -0.12,5.27 -0.07,3.89 v 0.25 0.25 0.26 l 0.07,0.25 v 0.25 l 0.06,0.19 0.06,0.25 v 0.25 l 0.06,0.25 0.13,0.19 0.06,0.25 0.06,0.25 0.13,0.19 0.06,0.25 0.13,0.19 0.12,0.25 0.13,0.18 0.12,0.19 0.13,0.19 0.19,0.19 0.12,0.19 0.19,0.19 0.19,0.18 0.13,0.19 0.18,0.19 0.19,0.13 0.19,0.18 0.19,0.19 0.19,0.13 0.18,0.19 0.19,0.18 0.19,0.13 0.19,0.19 0.19,0.19 0.18,0.18 0.26,0.19 0.18,0.13 0.19,0.19 0.25,0.18 0.19,0.13 0.19,0.19 0.25,0.12 0.19,0.19 0.25,0.13 0.19,0.19 0.25,0.12 0.19,0.13 0.25,0.18 0.25,0.19 0.31,0.19 0.25,0.19 0.25,0.25 0.25,0.25 0.19,0.25 0.25,0.25 0.19,0.25 0.19,0.32 0.13,0.25 0.18,0.31 0.13,0.32 0.19,0.31 0.06,0.31 0.13,0.32 0.12,0.31 0.06,0.31 0.07,0.32 0.06,0.37 v 0.32 0.37 l 0.06,0.32 -0.06,0.37 v 0.32 l -0.13,1.44 -0.18,1.57 -0.19,1.69 -0.19,1.76 -0.19,1.94 -0.25,1.95 -0.25,2.07 -0.25,2.19 -0.32,2.2 -0.31,2.26 -0.31,2.32 -0.38,2.38 -0.38,2.39 -0.37,2.38 -0.38,2.45 -0.44,2.38 -0.44,2.45 -0.5,2.38 -0.5,2.39 -0.5,2.32 -0.5,2.26 -0.57,2.25 -0.56,2.2 -0.63,2.07 v 0" /><path
                 id="path30"
                 style="fill:#241f21;fill-opacity:1;fill-rule:evenodd;stroke:#241f21;stroke-width:0.06;stroke-linecap:square;stroke-linejoin:bevel;stroke-miterlimit:10;stroke-dasharray:none;stroke-opacity:1"
                 d="m 188.72,473.31 -0.12,0.44 -0.19,0.44 -0.19,0.37 -0.19,0.38 -0.25,0.38 -0.25,0.37 -0.25,0.32 -0.32,0.31 -0.31,0.31 -0.31,0.32 -0.38,0.25 -0.31,0.25 -0.38,0.19 -0.38,0.19 -0.37,0.18 -0.44,0.13 -0.38,0.13 -0.44,0.12 -0.43,0.06 h -0.44 l -0.44,0.07 h -0.44 l -0.44,-0.07 -0.5,-0.06 -3.58,-0.63 -4.26,-0.81 -4.89,-0.88 -5.4,-0.94 -5.89,-1 -6.34,-1.07 -6.65,-1.13 -6.9,-1.13 -7.02,-1.13 -7.21,-1.13 -7.22,-1.13 -7.21,-1.06 -7.09,-1.01 -6.89,-0.94 -6.65,-0.81 -6.34,-0.76 -5.96,-0.56 -5.45,-0.5 -4.96,-0.32 -4.26,-0.12 -3.64,0.06 -2.88,0.25 -2.07,0.44 -1.13,0.69 -0.07,0.13 -0.06,0.12 -0.06,0.13 -0.06,0.19 -0.07,0.18 v 0.19 l -0.06,0.19 -0.06,0.25 v 0.25 l -0.07,0.25 v 0.32 0.25 0.31 0.25 0.32 l 0.07,0.31 v 0.31 l 0.06,0.32 v 0.31 l 0.06,0.31 0.07,0.32 0.06,0.31 0.12,0.31 0.07,0.32 0.06,0.19 0.06,0.12 v 0.13 l 0.06,0.19 0.07,0.12 0.06,0.13 v 0.12 l 0.06,0.13 0.07,0.12 v 0.13 l 0.06,0.12 v 0.07 l 0.06,0.12 v 0.06 l 0.06,0.07 v 0.12 l 0.07,0.07 v 0.06 0 l 0.06,0.06 v 0.06 0 0 0 l 0.19,0.95 0.81,0.87 1.32,0.82 1.82,0.88 2.38,0.81 2.82,0.82 3.33,0.81 3.82,0.82 4.21,0.81 4.7,0.82 5.08,0.88 5.52,0.88 5.83,0.88 6.27,0.87 6.59,0.88 6.96,1.01 7.28,0.94 7.52,1 7.84,1.07 8.16,1.13 8.4,1.12 8.59,1.2 8.91,1.25 9.03,1.26 0.19,0.06 h 0.12 l 0.19,0.06 h 0.13 l 0.19,0.06 h 0.12 l 0.19,0.07 0.13,0.06 0.12,0.06 0.19,0.07 h 0.12 l 0.19,0.06 0.13,0.06 0.12,0.13 0.13,0.06 0.19,0.06 0.12,0.06 0.13,0.07 0.12,0.12 0.13,0.07 0.12,0.06 0.19,0.12 0.13,0.07 0.12,0.12 0.19,0.19 0.19,0.19 0.25,0.19 0.19,0.18 0.25,0.26 0.19,0.25 0.25,0.25 0.25,0.25 0.19,0.31 0.25,0.25 0.19,0.32 0.18,0.31 0.19,0.31 0.25,0.38 0.19,0.38 0.13,0.37 0.19,0.38 0.18,0.44 0.13,0.38 0.12,0.43 0.13,0.44 0.13,0.51 0.06,0.5 0.06,0.5 v 0 l -0.06,0.12 -0.06,0.26 -0.07,0.31 -0.12,0.31 -0.07,0.44 -0.06,0.44 -0.06,0.57 -0.06,0.5 -0.07,0.62 v 0.57 l 0.07,0.63 0.06,0.62 0.19,0.63 0.19,0.63 0.25,0.63 0.37,0.62 0.38,0.57 0.5,0.5 0.63,0.5 0.69,0.44 0.81,0.38 0.88,0.31 1.07,0.25 h 0.06 l 0.13,0.06 0.31,0.13 0.38,0.13 0.43,0.12 0.51,0.13 0.62,0.18 0.63,0.07 0.69,0.12 h 0.69 0.75 l 0.82,-0.06 0.75,-0.19 0.75,-0.19 0.82,-0.31 0.75,-0.44 0.69,-0.56 0.69,-0.69 0.63,-0.82 0.56,-0.94 0.5,-1.13 0.44,-1.25 0.32,-1.45 0.25,-1.69 0.06,-0.44 0.13,-0.44 0.12,-0.44 0.13,-0.37 0.19,-0.44 0.18,-0.38 0.19,-0.38 0.25,-0.37 0.25,-0.32 0.32,-0.37 0.25,-0.32 0.31,-0.25 0.38,-0.31 0.31,-0.25 0.38,-0.25 0.37,-0.19 0.38,-0.19 0.38,-0.19 0.44,-0.12 0.43,-0.13 0.44,-0.06 0.44,-0.06 h 0.44 0.44 v 0 h 0.06 v 0 0 h 0.07 v 0 0 h 0.06 v 0 0 h 0.06 v 0 0 h 0.06 v 0 0 h 0.07 v 0 0 h 0.06 v 0 0 h 0.06 v 0 l 1.57,0.12 3.07,0.31 4.39,0.44 5.65,0.57 6.77,0.69 7.84,0.81 8.72,0.88 9.47,0.94 10.22,1.01 10.67,1.06 11.16,1.07 11.48,1.13 11.73,1.13 11.72,1.06 11.8,1.07 11.6,1.07 11.29,0.94 10.97,0.94 10.48,0.82 9.84,0.69 9.16,0.62 8.34,0.5 7.34,0.32 6.27,0.19 v 0 l 0.07,-0.07 0.12,-0.06 0.13,-0.06 0.18,-0.13 0.26,-0.12 0.25,-0.19 0.25,-0.13 0.25,-0.25 0.25,-0.19 0.31,-0.25 0.25,-0.25 0.25,-0.31 0.32,-0.31 0.19,-0.32 0.25,-0.31 0.19,-0.38 0.18,-0.37 0.13,-0.38 0.06,-0.44 0.06,-0.38 v -0.44 l -0.06,-0.43 -0.12,-0.51 -0.19,-0.44 -0.13,-0.44 -0.12,-0.37 -0.07,-0.44 -0.12,-0.31 -0.13,-0.38 -0.12,-0.31 -0.13,-0.26 -0.12,-0.25 -0.19,-0.25 -0.19,-0.25 -0.25,-0.19 -0.25,-0.18 -0.31,-0.19 -0.38,-0.13 -0.38,-0.12 -0.5,-0.13 -0.5,-0.12 -0.63,-0.07 -0.62,-0.06 -0.76,-0.06 h -0.81 l -0.88,-0.07 h -1 l -1.76,-0.06 -3.14,-0.25 -4.39,-0.38 -5.64,-0.5 -6.71,-0.69 -7.72,-0.75 -8.46,-0.88 -9.29,-0.94 -9.84,-1 -10.41,-1.07 -10.73,-1.19 -11.04,-1.13 -11.16,-1.26 -11.23,-1.25 -11.16,-1.19 -10.98,-1.26 -10.66,-1.25 -10.22,-1.19 -9.72,-1.13 -9.1,-1.13 -8.28,-1.01 -7.4,-1 -6.46,-0.88 -5.33,-0.75 -0.44,-0.06 -0.5,-0.13 -0.44,-0.19 -0.44,-0.18 -0.44,-0.19 -0.37,-0.19 -0.38,-0.25 -0.38,-0.32 -0.37,-0.25 -0.32,-0.37 -0.31,-0.32 -0.25,-0.37 -0.25,-0.32 -0.25,-0.44 -0.19,-0.37 -0.19,-0.44 -0.19,-0.38 -0.12,-0.44 -0.13,-0.5 -0.06,-0.44 -0.06,-0.44 v -0.5 -0.5 l 0.06,-0.44 0.44,-3.01 0.5,-3.51 0.5,-3.89 0.63,-4.33 0.63,-4.64 0.69,-5.02 0.69,-5.27 0.75,-5.59 0.81,-5.77 0.76,-5.96 0.81,-6.08 0.82,-6.28 0.88,-6.27 0.81,-6.4 0.82,-6.33 0.81,-6.34 0.75,-6.34 0.76,-6.21 0.75,-6.02 0.69,-5.96 0.69,-5.71 0.63,-5.45 0.56,-5.21 0.5,-4.89 0.13,-0.82 0.25,-0.82 0.25,-0.69 0.38,-0.69 0.43,-0.62 0.44,-0.57 0.57,-0.5 0.56,-0.44 0.57,-0.38 0.69,-0.31 0.62,-0.25 0.69,-0.19 0.69,-0.12 0.76,-0.07 h 0.69 l 0.75,0.13 0.69,0.12 0.69,0.26 0.63,0.31 0.69,0.38 0.56,0.43 0.57,0.57 0.56,0.63 0.44,0.69 2.51,4.14 2.76,4.39 2.88,4.64 3.14,4.89 3.26,5.02 3.45,5.15 3.57,5.27 3.77,5.39 3.89,5.4 4.01,5.39 4.14,5.46 4.2,5.33 4.33,5.27 4.39,5.21 4.45,5.02 4.52,4.89 4.58,4.7 4.64,4.46 4.7,4.14 4.64,3.89 4.71,3.57 4.7,3.27 4.7,2.82 4.65,2.38 0.12,0.13 0.44,0.25 0.75,0.5 1.01,0.63 1.25,0.75 1.51,0.88 1.75,1 2.07,1.01 2.26,1.13 2.51,1.13 2.76,1.19 2.95,1.13 3.19,1.13 3.39,1.13 3.58,1 3.76,0.94 3.95,0.88 4.2,0.75 4.33,0.57 4.45,0.43 4.71,0.26 4.83,0.06 4.95,-0.19 5.08,-0.38 4.77,-0.94 4.08,-1.69 3.38,-2.45 2.7,-3.13 2.13,-3.77 1.51,-4.33 0.87,-4.83 0.38,-5.39 -0.19,-5.77 -0.62,-6.15 -1.2,-6.53 -1.56,-6.77 -2.07,-7.03 -2.45,-7.21 -2.88,-7.4 -3.2,-7.41 -3.52,-7.46 -3.88,-7.47 -4.14,-7.4 -4.39,-7.21 -4.65,-7.16 -4.82,-6.9 -5.08,-6.58 -5.21,-6.34 -0.25,-0.25 -0.19,-0.19 -0.25,-0.25 -0.25,-0.19 -0.25,-0.19 -0.25,-0.18 -0.25,-0.13 -0.25,-0.12 -0.32,-0.19 -0.25,-0.07 -0.31,-0.12 -0.25,-0.13 -0.32,-0.06 -0.31,-0.06 -0.25,-0.06 h -0.32 l -0.31,-0.07 h -0.31 -0.32 -0.31 l -0.31,0.07 -0.32,0.06 -0.31,0.06 -0.31,0.06 v 0 0 0 0 0 0 0 0 0 h -0.07 v 0 0 0 0 0 l -0.06,0.07 v 0 0 0 0 0 0 0 0 l -0.56,0.18 -0.57,0.19 -0.44,0.32 -0.5,0.25 -0.44,0.37 -0.37,0.38 -0.38,0.38 -0.31,0.44 -0.32,0.44 -0.25,0.43 -0.25,0.51 -0.19,0.5 -0.19,0.5 -0.06,0.56 -0.12,0.51 v 0.56 0.57 l 0.06,0.5 0.06,0.56 0.13,0.57 0.18,0.5 0.19,0.56 0.25,0.5 0.32,0.51 1.94,2.88 2.26,3.45 2.51,3.95 2.76,4.33 2.95,4.77 3.07,5.08 3.2,5.33 3.2,5.65 3.26,5.77 3.13,5.9 3.08,6.02 2.94,6.09 2.83,6.02 2.51,6.02 2.25,5.84 1.95,5.77 1.57,5.45 1.19,5.27 0.75,4.96 0.19,4.58 -0.32,4.2 -0.94,3.7 -1.56,3.27 -2.26,2.63 -0.13,0.13 -0.06,0.06 -0.13,0.12 -0.12,0.07 -0.13,0.12 -0.12,0.07 -0.13,0.06 -0.12,0.06 -0.13,0.06 -0.12,0.13 -0.19,0.06 -0.13,0.06 -0.12,0.07 h -0.13 l -0.12,0.06 -0.19,0.06 -0.13,0.07 h -0.12 l -0.19,0.06 -0.13,0.06 h -0.12 l -0.19,0.06 h -0.13 l -0.12,0.07 -1.26,0.18 -1.56,0.13 -1.82,0.13 -2.13,0.06 h -2.45 l -2.7,-0.19 -2.95,-0.31 -3.26,-0.44 -3.45,-0.69 -3.7,-0.88 -3.95,-1.13 -4.2,-1.38 -4.45,-1.69 -4.64,-2.01 -4.83,-2.39 -5.02,-2.76 -5.27,-3.13 -5.46,-3.58 -5.58,-4.01 -5.83,-4.46 -5.96,-5.02 -6.15,-5.52 -6.27,-6.08 -6.39,-6.65 -0.32,-0.38 -0.94,-1.06 -1.44,-1.76 -2.01,-2.38 -2.38,-2.95 -2.82,-3.45 -3.2,-4.02 -3.45,-4.39 -3.7,-4.89 -3.95,-5.21 -4.08,-5.58 -4.14,-5.84 -4.2,-6.08 -4.27,-6.27 -4.14,-6.47 -4.07,-6.58 -3.95,-6.65 -3.71,-6.65 -3.51,-6.72 -3.13,-6.64 -2.89,-6.53 -2.38,-6.4 -2.01,-6.27 -1.5,-6.02 v -0.07 -0.06 -0.06 l -0.07,-0.13 v -0.06 -0.06 -0.07 -0.06 -0.06 -0.06 l -0.06,-0.07 v -0.12 -0.06 -0.07 -0.06 -0.06 -0.07 -0.06 -0.06 -0.13 -0.06 -0.06 -0.06 -0.07 -0.75 l 0.06,-2.01 0.07,-3.26 0.12,-4.39 0.06,-5.33 0.19,-6.21 0.13,-6.9 0.19,-7.6 0.12,-8.03 0.19,-8.34 0.19,-8.66 0.25,-8.78 0.19,-8.72 0.18,-8.66 0.19,-8.4 0.13,-8.03 0.19,-7.53 0.12,-6.9 0.19,-6.21 0.06,-5.33 0.13,-4.39 0.06,-3.27 0.06,-2.07 v -0.69 -0.25 l 0.07,-0.25 v -0.25 l 0.06,-0.25 v -0.25 l 0.06,-0.25 0.06,-0.25 0.07,-0.25 0.12,-0.26 0.07,-0.25 0.12,-0.25 0.06,-0.19 0.13,-0.25 0.12,-0.18 0.13,-0.26 0.13,-0.18 0.18,-0.25 0.13,-0.19 0.19,-0.19 0.12,-0.19 0.19,-0.19 0.19,-0.19 0.19,-0.18 0.19,-0.19 0.62,-0.5 0.69,-0.57 0.82,-0.56 0.81,-0.57 0.94,-0.62 1.01,-0.63 1.13,-0.63 1.19,-0.69 1.25,-0.63 1.32,-0.62 1.44,-0.63 1.51,-0.63 1.57,-0.56 1.69,-0.57 1.82,-0.56 1.82,-0.5 2,-0.44 2.01,-0.44 2.2,-0.38 2.25,-0.38 2.32,-0.25 2.45,-0.18 2.51,-0.13 2.63,-0.13 h 0.5 0.44 0.44 0.44 0.44 l 0.38,-0.06 h 0.44 0.37 l 0.38,-0.06 h 0.38 0.43 l 0.38,-0.06 h 0.38 0.37 l 0.38,-0.07 h 0.44 0.37 l 0.38,-0.06 h 0.44 0.44 0.44 0.44 l 0.44,-0.06 h 0.5 0.06 0.06 l 0.13,0.06 h 0.19 0.12 l 0.25,0.06 h 0.19 0.25 l 0.25,0.07 h 0.25 l 0.25,0.06 h 0.26 l 0.25,0.06 h 0.25 l 0.25,0.06 h 0.25 l 0.19,0.07 h 0.19 0.18 l 0.13,0.06 h 0.12 0.13 0.06 v 0 l 0.25,0.06 h 0.19 l 0.13,0.07 h 0.19 l 0.12,0.06 h 0.13 0.12 l 0.13,0.06 h 0.12 0.13 l 0.06,0.06 h 0.13 0.18 l 0.13,0.07 0.13,0.06 h 0.18 l 0.25,0.06 0.19,0.06 0.25,0.07 0.32,0.06 0.31,0.13 0.38,0.06 0.37,0.12 0.44,0.13 0.69,0.19 0.88,0.25 1.13,0.25 1.38,0.38 1.57,0.37 1.75,0.5 2.01,0.57 2.13,0.63 2.32,0.69 2.45,0.75 2.63,0.88 2.83,0.94 2.88,1 3.07,1.13 3.14,1.19 3.26,1.32 3.39,1.38 3.45,1.51 3.51,1.63 3.64,1.69 3.7,1.88 3.7,1.95 3.76,2.07 3.83,2.13 1.25,0.82 1.32,0.75 1.25,0.75 1.26,0.82 1.19,0.81 1.25,0.82 1.26,0.88 1.19,0.81 1.19,0.88 1.19,0.88 1.19,0.88 1.2,0.94 1.19,0.88 1.13,0.94 1.13,0.94 1.19,0.94 1.13,0.94 1.13,1 1.06,0.94 1.13,1.01 1.13,1 1.07,1.01 1.06,1.06 1.07,1.01 3.13,3.07 3.14,3.2 3.14,3.2 3.13,3.32 3.07,3.27 3.08,3.32 3.01,3.33 2.88,3.32 2.89,3.26 2.76,3.2 2.7,3.14 2.57,3.07 2.51,2.95 2.32,2.82 2.19,2.7 2.07,2.57 1.95,2.39 1.75,2.19 1.51,2.01 1.38,1.76 1.19,1.57 1,1.31 0.75,1.01 0.51,0.81 v 0 l 0.06,0.06 v 0.07 l 0.06,0.06 0.06,0.13 0.07,0.06 0.06,0.12 0.06,0.13 0.06,0.12 0.13,0.13 0.06,0.13 0.13,0.12 0.06,0.13 0.13,0.18 0.12,0.13 0.13,0.13 0.12,0.18 0.13,0.13 0.12,0.19 0.13,0.12 0.19,0.19 0.12,0.13 0.13,0.12 0.19,0.19 0.06,0.06 0.12,0.07 0.07,0.06 h 0.12 l 0.07,0.06 0.12,0.06 h 0.06 l 0.13,0.07 h 0.12 0.07 l 0.12,0.06 h 0.07 0.12 0.06 0.13 0.06 0.13 0.06 0.13 0.06 0.06 0.13 0.06 0.06 v 0 l 0.06,-0.06 v 0 h 0.07 v -0.07 h 0.06 0.06 l 0.07,-0.06 0.12,-0.06 h 0.06 l 0.07,-0.06 h 0.06 l 0.06,-0.07 0.13,-0.06 h 0.06 l 0.06,-0.06 h 0.07 l 0.06,-0.07 h 0.06 l 0.06,-0.06 v 0 h 0.07 v 0 0 0 l 0.06,-0.06 v 0 0 l 0.06,-0.06 h 0.06 l 0.07,-0.07 0.06,-0.06 0.06,-0.06 h 0.07 l 0.06,-0.06 0.06,-0.07 0.06,-0.06 0.07,-0.06 h 0.06 l 0.06,-0.07 v -0.06 l 0.06,-0.06 h 0.07 l 0.06,-0.06 v 0 h 0.06 v -0.07 0 -0.25 -0.19 -0.25 -0.18 -0.13 -0.13 -0.12 -0.13 -0.06 -0.06 -0.06 -0.07 -0.06 -0.06 0 -0.07 0 -0.06 h 0.06 v -0.06 0 -0.06 -0.07 -0.06 -0.12 -0.13 -0.13 -0.12 -0.06 -0.13 -0.06 -0.13 -0.06 -0.06 l -0.06,-0.07 v -0.06 -0.12 -0.07 l -0.06,-0.06 V 238 l -0.06,-0.06 v -0.13 l -0.07,-0.06 v -0.07 l -0.06,-0.12 -0.06,-0.06 -0.06,-0.13 v -0.12 0 0 l -0.07,-0.07 v 0 -0.06 -0.06 -0.07 l -0.06,-0.06 v -0.06 -0.06 l -0.06,-0.07 v -0.12 l -0.06,-0.06 v -0.13 l -0.07,-0.06 v -0.13 l -0.06,-0.12 -0.06,-0.13 v -0.06 l -0.07,-0.13 -0.06,-0.12 -0.06,-0.13 -0.06,-0.12 -0.07,-0.13 -1.13,-2.07 -1.63,-2.82 -2.13,-3.52 -2.57,-4.07 -3.07,-4.65 -3.45,-5.14 -4.02,-5.52 -4.39,-5.9 -4.89,-6.14 -5.39,-6.34 -5.77,-6.46 -6.28,-6.53 -6.64,-6.52 -7.15,-6.4 -7.59,-6.34 -8.03,-6.08 -8.47,-5.83 -8.84,-5.46 -9.35,-5.02 -9.78,-4.58 -10.16,-3.95 -10.6,-3.39 -11.04,-2.7 -11.41,-1.94 h -0.07 -0.12 -0.06 -0.07 l -0.06,-0.07 h -0.06 -0.13 -0.06 -0.06 l -0.07,-0.06 h -0.06 -0.12 -0.07 -0.06 l -0.06,-0.06 h -0.06 -0.07 -0.12 -0.07 l -0.06,-0.06 h -0.06 -0.06 -0.13 -0.06 l -0.88,-0.13 -1,-0.12 -1.07,-0.19 -1.25,-0.13 -1.32,-0.19 -1.44,-0.12 -1.51,-0.13 -1.63,-0.12 -1.76,-0.07 h -1.81 -1.89 -1.94 l -2.07,0.13 -2.13,0.19 -2.2,0.25 -2.32,0.31 -2.32,0.38 -2.38,0.5 -2.45,0.63 -2.51,0.69 -2.57,0.75 -2.63,0.94 -2.64,1.07 -2.69,1.19 -0.63,0.19 -0.57,0.19 -0.56,0.12 -0.63,0.13 h -0.56 -0.63 l -0.56,-0.13 -0.57,-0.06 -0.56,-0.19 -0.5,-0.19 -0.51,-0.25 -0.5,-0.31 -0.5,-0.32 -0.44,-0.37 -0.37,-0.38 -0.38,-0.44 -0.38,-0.44 -0.31,-0.5 -0.25,-0.56 -0.25,-0.5 -0.19,-0.57 -0.13,-0.63 -0.06,-0.62 -0.06,-0.63 -0.06,-2.32 -0.07,-2.51 -0.06,-2.57 -0.13,-2.7 -0.18,-2.76 -0.19,-2.89 -0.25,-2.88 -0.32,-2.89 -0.31,-2.95 -0.44,-2.95 -0.44,-2.88 -0.5,-2.89 -0.63,-2.82 -0.62,-2.76 -0.76,-2.63 -0.81,-2.58 -0.88,-2.38 -1,-2.26 -1.01,-2.13 -1.19,-1.95 -1.25,-1.75 -1.32,-1.51 -1.44,-1.32 -1.57,-1.06 -0.19,-0.07 -0.19,-0.06 -0.25,-0.06 -0.19,-0.06 -0.18,-0.07 -0.25,-0.06 -0.19,-0.06 -0.19,-0.06 h -0.25 l -0.19,-0.07 -0.25,-0.06 h -0.19 l -0.25,-0.06 h -0.25 l -0.19,-0.07 h -0.25 -0.25 -0.25 -0.25 -0.25 -0.25 l -0.26,0.07 h -0.25 l -0.25,0.06 h -0.18 l -0.13,-0.06 h -0.19 -0.19 -0.18 -0.19 -0.19 -0.25 -0.19 -0.25 l -0.25,0.06 H 215 214.75 l -0.25,0.06 -0.25,0.07 H 214 l -0.32,0.06 -0.25,0.06 -0.25,0.06 h -0.25 l -0.31,0.07 -0.25,0.12 -0.26,0.06 -0.31,0.07 -2.07,0.81 -1.88,1.26 -1.69,1.57 -1.63,1.94 -1.45,2.26 -1.25,2.57 -1.19,2.76 -1.01,2.95 -0.94,3.2 -0.81,3.32 -0.75,3.45 -0.57,3.52 -0.56,3.64 -0.44,3.63 -0.38,3.64 -0.31,3.64 -0.25,3.51 -0.25,3.45 -0.13,3.39 -0.13,3.14 -0.12,3.01 -0.06,2.82 -0.13,2.58 -0.06,2.25 -0.25,10.42 -0.32,11.29 -0.31,12.04 -0.38,12.74 -0.31,13.3 -0.31,13.74 -0.38,14.11 -0.38,14.37 -0.31,14.43 -0.31,14.55 -0.38,14.43 -0.31,14.24 -0.32,13.99 -0.31,13.61 -0.31,13.11 -0.25,12.49 -0.26,11.79 -0.25,10.98 -0.25,10.04 -0.19,9.03 -0.18,7.9 -0.13,6.65 -0.12,5.27 -0.07,3.89 v 0.25 0.25 0.26 l 0.07,0.25 v 0.25 l 0.06,0.19 0.06,0.25 v 0.25 l 0.06,0.25 0.13,0.19 0.06,0.25 0.06,0.25 0.13,0.19 0.06,0.25 0.13,0.19 0.12,0.25 0.13,0.18 0.12,0.19 0.13,0.19 0.19,0.19 0.12,0.19 0.19,0.19 0.19,0.18 0.13,0.19 0.18,0.19 0.19,0.13 0.19,0.18 0.19,0.19 0.19,0.13 0.18,0.19 0.19,0.18 0.19,0.13 0.19,0.19 0.19,0.19 0.18,0.18 0.26,0.19 0.18,0.13 0.19,0.19 0.25,0.18 0.19,0.13 0.19,0.19 0.25,0.12 0.19,0.19 0.25,0.13 0.19,0.19 0.25,0.12 0.19,0.13 0.25,0.18 0.25,0.19 0.31,0.19 0.25,0.19 0.25,0.25 0.25,0.25 0.19,0.25 0.25,0.25 0.19,0.25 0.19,0.32 0.13,0.25 0.18,0.31 0.13,0.32 0.19,0.31 0.06,0.31 0.13,0.32 0.12,0.31 0.06,0.31 0.07,0.32 0.06,0.37 v 0.32 0.37 l 0.06,0.32 -0.06,0.37 v 0.32 l -0.13,1.44 -0.18,1.57 -0.19,1.69 -0.19,1.76 -0.19,1.94 -0.25,1.95 -0.25,2.07 -0.25,2.19 -0.32,2.2 -0.31,2.26 -0.31,2.32 -0.38,2.38 -0.38,2.39 -0.37,2.38 -0.38,2.45 -0.44,2.38 -0.44,2.45 -0.5,2.38 -0.5,2.39 -0.5,2.32 -0.5,2.26 -0.57,2.25 -0.56,2.2 z" /><path
                 id="path32"
                 style="fill:none;stroke:#000000;stroke-width:0.06;stroke-linecap:square;stroke-linejoin:bevel;stroke-miterlimit:10;stroke-dasharray:none;stroke-opacity:1"
                 d="m 206.72,324.82 0.06,-0.19 0.13,-0.37 0.19,-0.63 0.31,-0.88 0.31,-1.13 0.44,-1.25 0.44,-1.51 0.5,-1.63 0.51,-1.76 0.5,-1.94 0.56,-2.01 0.57,-2.13 0.5,-2.26 0.56,-2.26 0.5,-2.38 0.51,-2.32 0.44,-2.45 0.37,-2.38 0.38,-2.39 0.25,-2.38 0.19,-2.32 0.19,-2.26 v -2.2 l -0.07,-2.07 -0.12,-2 -0.19,-2.01 -0.25,-2.01 -0.32,-1.94 -0.37,-1.89 -0.38,-1.88 -0.44,-1.82 -0.44,-1.69 -0.5,-1.69 -0.44,-1.64 -0.5,-1.56 -0.5,-1.45 -0.5,-1.38 -0.5,-1.31 -0.44,-1.2 -0.44,-1.06 -0.44,-1.01 -0.38,-0.87 -0.31,-0.76 -0.31,-0.63 -0.26,-0.5 -0.18,-0.37 -0.07,-0.19 -0.06,-0.06 v 0.37 1.07 1.69 2.32 2.83 3.26 3.64 4.01 4.21 4.45 4.52 4.64 4.58 4.58 4.39 4.26 3.96 3.64 3.26 2.82 2.32 1.7 1.12 0.38 0" /><path
                 id="path34"
                 style="fill:#ffffff;fill-opacity:1;fill-rule:evenodd;stroke:#ffffff;stroke-width:0.06;stroke-linecap:square;stroke-linejoin:bevel;stroke-miterlimit:10;stroke-dasharray:none;stroke-opacity:1"
                 d="m 206.72,324.82 0.06,-0.19 0.13,-0.37 0.19,-0.63 0.31,-0.88 0.31,-1.13 0.44,-1.25 0.44,-1.51 0.5,-1.63 0.51,-1.76 0.5,-1.94 0.56,-2.01 0.57,-2.13 0.5,-2.26 0.56,-2.26 0.5,-2.38 0.51,-2.32 0.44,-2.45 0.37,-2.38 0.38,-2.39 0.25,-2.38 0.19,-2.32 0.19,-2.26 v -2.2 l -0.07,-2.07 -0.12,-2 -0.19,-2.01 -0.25,-2.01 -0.32,-1.94 -0.37,-1.89 -0.38,-1.88 -0.44,-1.82 -0.44,-1.69 -0.5,-1.69 -0.44,-1.64 -0.5,-1.56 -0.5,-1.45 -0.5,-1.38 -0.5,-1.31 -0.44,-1.2 -0.44,-1.06 -0.44,-1.01 -0.38,-0.87 -0.31,-0.76 -0.31,-0.63 -0.26,-0.5 -0.18,-0.37 -0.07,-0.19 -0.06,-0.06 v 0.37 1.07 1.69 2.32 2.83 3.26 3.64 4.01 4.21 4.45 4.52 4.64 4.58 4.58 4.39 4.26 3.96 3.64 3.26 2.82 2.32 1.7 1.12 z" /></g></g></g></g></g></g></svg>